<?xml version="1.0" encoding="UTF-8" standalone="no"?>
<!DOCTYPE svg PUBLIC "-//W3C//DTD SVG 1.1//EN"
 "http://www.w3.org/Graphics/SVG/1.1/DTD/svg11.dtd">
<!-- Generated by graphviz version 2.40.1 (20161225.0304)
 -->
<!-- Title: dag Pages: 1 -->
<svg width="350pt" height="205pt"
 viewBox="0.00 0.00 350.00 205.20" xmlns="http://www.w3.org/2000/svg" xmlns:xlink="http://www.w3.org/1999/xlink">
<g id="graph0" class="graph" transform="scale(1 1) rotate(0) translate(4 201.2)">
<title>dag</title>
<polygon fill="#ffffff" stroke="transparent" points="-4,4 -4,-201.2 346,-201.2 346,4 -4,4"/>
<!-- T -->
<g id="node1" class="node">
<title>T</title>
<polygon fill="none" stroke="#000000" stroke-width="2" points="54,-196.6015 0,-196.6015 0,-143.7985 54,-143.7985 54,-196.6015"/>
<text text-anchor="middle" x="27" y="-163.6" font-family="Helvetica,sans-Serif" font-size="22.00" fill="#000000">T</text>
</g>
<!-- S -->
<g id="node2" class="node">
<title>S</title>
<polygon fill="none" stroke="#000000" stroke-width="2" points="198,-196.6015 144,-196.6015 144,-143.7985 198,-143.7985 198,-196.6015"/>
<text text-anchor="middle" x="171" y="-163.6" font-family="Helvetica,sans-Serif" font-size="22.00" fill="#000000">S</text>
</g>
<!-- T&#45;&gt;S -->
<g id="edge1" class="edge">
<title>T&#45;&gt;S</title>
<path fill="none" stroke="#000000" stroke-width="2" d="M54.0853,-170.2C77.3689,-170.2 111.0863,-170.2 136.3352,-170.2"/>
<polygon fill="#000000" stroke="#000000" stroke-width="2" points="136.5466,-172.6501 143.5466,-170.2 136.5465,-167.7501 136.5466,-172.6501"/>
</g>
<!-- Tstar -->
<g id="node5" class="node">
<title>Tstar</title>
<ellipse fill="none" stroke="#000000" stroke-width="2" cx="315" cy="-170.2" rx="27" ry="27"/>
<text text-anchor="middle" x="315" y="-164.2" font-family="Helvetica,sans-Serif" font-size="20.00" fill="#000000">T*</text>
</g>
<!-- S&#45;&gt;Tstar -->
<g id="edge2" class="edge">
<title>S&#45;&gt;Tstar</title>
<path fill="none" stroke="#000000" stroke-width="2" d="M198.0853,-170.2C221.3689,-170.2 255.0863,-170.2 280.3352,-170.2"/>
<polygon fill="#000000" stroke="#000000" stroke-width="2" points="280.5466,-172.6501 287.5466,-170.2 280.5465,-167.7501 280.5466,-172.6501"/>
</g>
<!-- Y -->
<g id="node3" class="node">
<title>Y</title>
<polygon fill="none" stroke="#000000" stroke-width="2" points="54,-52.6015 0,-52.6015 0,.2015 54,.2015 54,-52.6015"/>
<text text-anchor="middle" x="27" y="-19.6" font-family="Helvetica,sans-Serif" font-size="22.00" fill="#000000">Y</text>
</g>
<!-- Y&#45;&gt;T -->
<g id="edge3" class="edge">
<title>Y&#45;&gt;T</title>
<path fill="none" stroke="#000000" stroke-width="2" d="M27,-52.6118C27,-76.2597 27,-111.0536 27,-136.6606"/>
<polygon fill="#000000" stroke="#000000" stroke-width="2" points="24.5501,-136.9556 27,-143.9556 29.4501,-136.9557 24.5501,-136.9556"/>
</g>
<!-- Y&#45;&gt;S -->
<g id="edge4" class="edge">
<title>Y&#45;&gt;S</title>
<path fill="none" stroke="#000000" stroke-width="2" d="M53.4118,-52.6118C77.7702,-76.9702 113.9543,-113.1543 139.7431,-138.9431"/>
<polygon fill="#000000" stroke="#000000" stroke-width="2" points="138.0734,-140.7383 144.7556,-143.9556 141.5383,-137.2734 138.0734,-140.7383"/>
</g>
<!-- W -->
<g id="node4" class="node">
<title>W</title>
<polygon fill="none" stroke="#000000" stroke-width="2" points="198,-52.6015 144,-52.6015 144,.2015 198,.2015 198,-52.6015"/>
<text text-anchor="middle" x="171" y="-19.6" font-family="Helvetica,sans-Serif" font-size="22.00" fill="#000000">W</text>
</g>
<!-- Y&#45;&gt;W -->
<g id="edge5" class="edge">
<title>Y&#45;&gt;W</title>
<path fill="none" stroke="#000000" stroke-width="2" d="M54.0853,-26.2C77.3689,-26.2 111.0863,-26.2 136.3352,-26.2"/>
<polygon fill="#000000" stroke="#000000" stroke-width="2" points="136.5466,-28.6501 143.5466,-26.2 136.5465,-23.7501 136.5466,-28.6501"/>
</g>
<!-- W&#45;&gt;T -->
<g id="edge6" class="edge">
<title>W&#45;&gt;T</title>
<path fill="none" stroke="#000000" stroke-width="2" d="M144.5882,-52.6118C120.2298,-76.9702 84.0457,-113.1543 58.2569,-138.9431"/>
<polygon fill="#000000" stroke="#000000" stroke-width="2" points="56.4617,-137.2734 53.2444,-143.9556 59.9266,-140.7383 56.4617,-137.2734"/>
</g>
<!-- W&#45;&gt;S -->
<g id="edge7" class="edge">
<title>W&#45;&gt;S</title>
<path fill="none" stroke="#000000" stroke-width="2" d="M171,-52.6118C171,-76.2597 171,-111.0536 171,-136.6606"/>
<polygon fill="#000000" stroke="#000000" stroke-width="2" points="168.5501,-136.9556 171,-143.9556 173.4501,-136.9557 168.5501,-136.9556"/>
</g>
</g>
</svg>

